<svg version="1.2" xmlns="http://www.w3.org/2000/svg" viewBox="0 0 98 98" width="98" height="98">
	<title>add_post-svg</title>
	<style>
		.s0 { fill: #011627 } 
	</style>
	<g id="Camada_x0020_1">
		<path id="Layer" fill-rule="evenodd" class="s0" d="m25.2 7.1h47.8c5 0 9.5 2 12.8 5.3 3.3 3.3 5.3 7.9 5.3 12.8v47.8c0 5-2 9.5-5.3 12.8-3.3 3.3-7.8 5.3-12.8 5.3h-47.8c-4.9 0-9.5-2-12.8-5.3-3.2-3.3-5.3-7.8-5.3-12.8v-47.8c0-5 2.1-9.5 5.3-12.8 3.3-3.2 7.9-5.3 12.8-5.3zm47.8 3.4h-47.8c-4 0-7.7 1.7-10.3 4.3-2.7 2.7-4.4 6.4-4.4 10.4v47.8c0 4 1.7 7.7 4.4 10.4 2.6 2.6 6.3 4.3 10.3 4.3h47.8c4 0 7.7-1.7 10.4-4.3 2.7-2.7 4.3-6.4 4.3-10.4v-47.8c0-4-1.6-7.7-4.3-10.4-2.7-2.6-6.4-4.3-10.4-4.3zm-38 40.3c-0.9 0-1.7-0.7-1.7-1.7 0-0.9 0.8-1.7 1.8-1.7h12.3v-12.4c0-0.9 0.8-1.7 1.7-1.7 1 0 1.7 0.8 1.7 1.7v12.4h12.4c0.9 0 1.7 0.8 1.7 1.7 0 1-0.7 1.7-1.7 1.7h-12.4v12.4c0 0.9-0.7 1.7-1.7 1.7-0.9 0-1.7-0.8-1.7-1.7v-12.4z"/>
	</g>
</svg>