<svg xmlns="http://www.w3.org/2000/svg" width="37.653" height="30.599" viewBox="0 0 37.653 30.599">
  <path id="Instagram-Camera-Icon-oi3r3s" d="M5.957,29.6A5.964,5.964,0,0,1,0,23.644V9.331A5.966,5.966,0,0,1,5.957,3.373h5.512L12.2,2.286A5.047,5.047,0,0,1,16.331.044L19.737,0H19.8a5.017,5.017,0,0,1,4.237,2.3l.693,1.069h5.959a5.965,5.965,0,0,1,5.959,5.957V23.644A5.963,5.963,0,0,1,30.693,29.6ZM1.21,9.331V23.644a4.753,4.753,0,0,0,4.747,4.747H30.693a4.754,4.754,0,0,0,4.75-4.747V9.331a4.756,4.756,0,0,0-4.75-4.75H24.08L23.03,2.96A3.834,3.834,0,0,0,19.8,1.208h-.053l-3.4.044A3.848,3.848,0,0,0,13.2,2.958L12.113,4.581H5.957A4.755,4.755,0,0,0,1.21,9.331Zm8.714,6.225A8.648,8.648,0,1,1,18.571,24.2,8.659,8.659,0,0,1,9.924,15.556Zm1.21,0a7.437,7.437,0,1,0,7.437-7.442A7.448,7.448,0,0,0,11.134,15.556Z" transform="translate(0.5 0.5)" stroke="rgba(0,0,0,0)" stroke-miterlimit="10" stroke-width="1"/>
</svg>
