<svg version="1.2" xmlns="http://www.w3.org/2000/svg" viewBox="0 0 82 82" width="82" height="82">
	<title>home-svg</title>
	<style>
		.s0 { fill: #011627 } 
	</style>
	<g id="Camada_x0020_1">
		<path id="Layer" fill-rule="evenodd" class="s0" d="m31.3 77.4h-28.5c-0.9 0-1.6-0.8-1.6-1.7v-37c0-0.4 0.1-0.8 0.5-1.2l38-37.3c0.6-0.6 1.6-0.6 2.3 0l39.3 37.2c0.4 0.3 0.6 0.8 0.6 1.3v37c0 0.9-0.7 1.7-1.6 1.7h-28.5c-1 0-1.7-0.8-1.7-1.7v-19.5c0-2.4-0.9-4.5-2.5-6.1-1.6-1.5-3.7-2.5-6.1-2.5-2.3 0-4.4 1-6 2.5-1.6 1.6-2.5 3.7-2.5 6.1v19.5c0 0.9-0.8 1.7-1.7 1.7zm-26.8-3.3h25.2v-17.9c0-3.3 1.3-6.2 3.5-8.4 2.1-2.1 5.1-3.5 8.3-3.5 3.3 0 6.3 1.4 8.4 3.5 2.2 2.2 3.5 5.1 3.5 8.4v17.9h25.2v-34.7l-37.7-35.8-36.4 35.8c0 0 0 34.7 0 34.7z"/>
	</g>
</svg>