<svg xmlns="http://www.w3.org/2000/svg" width="23.678" height="20.983" viewBox="0 0 23.678 20.983">
  <path id="Path_16" data-name="Path 16" d="M521.115,252.613a.664.664,0,0,1-.4-.136c-.206-.156-5.074-3.856-7.425-5.932l-.177-.157a19.5,19.5,0,0,1-1.64-1.574c-2.417-2.7-3.246-7.575-.369-10.727a7.459,7.459,0,0,1,5.389-2.457,6.933,6.933,0,0,1,4.624,1.748,6.932,6.932,0,0,1,4.624-1.748,7.457,7.457,0,0,1,5.389,2.457c2.877,3.153,2.048,8.023-.369,10.728a19.668,19.668,0,0,1-1.635,1.569l-.18.159c-2.514,2.22-5.167,4.247-7.432,5.938A.666.666,0,0,1,521.115,252.613Zm-4.624-19.652a6.106,6.106,0,0,0-4.406,2.023c-2.376,2.6-1.654,6.669.378,8.943a18.487,18.487,0,0,0,1.531,1.464l.177.157c1.928,1.7,5.715,4.621,6.948,5.565,2.151-1.611,4.613-3.509,6.943-5.566l.179-.159a18.537,18.537,0,0,0,1.527-1.46c2.032-2.274,2.754-6.339.378-8.943a6.106,6.106,0,0,0-4.406-2.023,5.634,5.634,0,0,0-4.135,1.794.7.7,0,0,1-.978,0A5.634,5.634,0,0,0,516.49,232.961Z" transform="translate(-509.276 -231.63)"/>
</svg>
