<?xml version="1.0" standalone="no"?>
<!DOCTYPE svg PUBLIC "-//W3C//DTD SVG 20010904//EN"
 "http://www.w3.org/TR/2001/REC-SVG-20010904/DTD/svg10.dtd">
<svg version="1.0" xmlns="http://www.w3.org/2000/svg"
 width="256.000000pt" height="256.000000pt" viewBox="0 0 256.000000 256.000000"
 preserveAspectRatio="xMidYMid meet">

<g transform="translate(0.000000,256.000000) scale(0.100000,-0.100000)"
fill="#000000" stroke="none">
<path d="M1595 2384 c-467 -95 -853 -174 -857 -174 -5 0 -8 -339 -8 -752 l0
-753 -95 3 c-171 6 -304 -45 -421 -162 -54 -54 -76 -85 -92 -129 -79 -211 70
-396 333 -414 209 -14 427 96 516 259 l34 63 5 729 5 729 550 112 c303 62 565
116 583 119 l32 8 0 -511 0 -511 -68 6 c-150 14 -335 -51 -441 -154 -76 -75
-112 -146 -119 -235 -4 -60 -2 -73 27 -131 36 -73 79 -112 168 -153 48 -23 76
-28 162 -31 127 -5 190 7 297 58 98 47 179 123 220 207 l29 58 3 968 c1 532
-1 967 -5 966 -5 0 -390 -79 -858 -175z"/>
</g>
</svg>
